<svg width="20" height="20" viewBox="0 0 20 20" fill="none" xmlns="http://www.w3.org/2000/svg">
<g clip-path="url(#clip0_1_188)">
<path d="M10 0.833252C9.33696 0.833252 8.70107 1.09664 8.23223 1.56549C7.76339 2.03433 7.5 2.67021 7.5 3.33325V9.99992C7.5 10.663 7.76339 11.2988 8.23223 11.7677C8.70107 12.2365 9.33696 12.4999 10 12.4999C10.663 12.4999 11.2989 12.2365 11.7678 11.7677C12.2366 11.2988 12.5 10.663 12.5 9.99992V3.33325C12.5 2.67021 12.2366 2.03433 11.7678 1.56549C11.2989 1.09664 10.663 0.833252 10 0.833252Z" stroke="#919296" stroke-width="2" stroke-linecap="round" stroke-linejoin="round"/>
<path d="M15.8334 8.33325V9.99992C15.8334 11.547 15.2188 13.0307 14.1249 14.1247C13.0309 15.2187 11.5472 15.8333 10.0001 15.8333C8.45299 15.8333 6.96925 15.2187 5.87529 14.1247C4.78133 13.0307 4.16675 11.547 4.16675 9.99992V8.33325" stroke="#919296" stroke-width="2" stroke-linecap="round" stroke-linejoin="round"/>
<path d="M10 15.8333V19.1666" stroke="#919296" stroke-width="2" stroke-linecap="round" stroke-linejoin="round"/>
<path d="M6.66675 19.1667H13.3334" stroke="#919296" stroke-width="2" stroke-linecap="round" stroke-linejoin="round"/>
</g>
<defs>
<clipPath id="clip0_1_188">
<rect width="20" height="20" fill="white"/>
</clipPath>
</defs>
</svg>
